name C:\Users\u0101727\Documents\MyRepositories\upper-imu-dc\OpenSim\subject0\MA\MA_Splines\angle_in_n3_dof9_0.mot
datacolumns 10
datarows 52
range 50.01000000 50.52000000
endheader 
time	clav_prot	clav_elev	scapula_abduction	scapula_elevation	scapula_upward_rot	scapula_winging	plane_elv	shoulder_elv	axial_rot	
         50.01000000	        -16.90593547	          4.60560848	        -30.88730313	          7.08700750	         46.86245639	          6.73993887	        -38.88248977	         91.29427006	        -37.11132463	
         50.02000000	        -44.34577705	         16.86370047	        -30.88730313	          7.08700750	         46.86245639	          6.73993887	        -38.88248977	         91.29427006	        -37.11132463	
         50.03000000	        -30.62585626	         16.86370047	        -30.88730313	          7.08700750	         46.86245639	          6.73993887	        -38.88248977	         91.29427006	        -37.11132463	
         50.04000000	        -16.90593547	         16.86370047	        -30.88730313	          7.08700750	         46.86245639	          6.73993887	        -38.88248977	         91.29427006	        -37.11132463	
         50.05000000	        -44.34577705	         -7.65248351	         -9.79969714	          7.08700750	         46.86245639	          6.73993887	        -38.88248977	         91.29427006	        -37.11132463	
         50.06000000	        -30.62585626	         -7.65248351	         -9.79969714	          7.08700750	         46.86245639	          6.73993887	        -38.88248977	         91.29427006	        -37.11132463	
         50.07000000	        -16.90593547	         -7.65248351	         -9.79969714	          7.08700750	         46.86245639	          6.73993887	        -38.88248977	         91.29427006	        -37.11132463	
         50.08000000	        -44.34577705	          4.60560848	         -9.79969714	          7.08700750	         46.86245639	          6.73993887	        -38.88248977	         91.29427006	        -37.11132463	
         50.09000000	        -30.62585626	          4.60560848	         -9.79969714	          7.08700750	         46.86245639	          6.73993887	        -38.88248977	         91.29427006	        -37.11132463	
         50.10000000	        -16.90593547	          4.60560848	         -9.79969714	          7.08700750	         46.86245639	          6.73993887	        -38.88248977	         91.29427006	        -37.11132463	
         50.11000000	        -44.34577705	         16.86370047	         -9.79969714	          7.08700750	         46.86245639	          6.73993887	        -38.88248977	         91.29427006	        -37.11132463	
         50.12000000	        -30.62585626	         16.86370047	         -9.79969714	          7.08700750	         46.86245639	          6.73993887	        -38.88248977	         91.29427006	        -37.11132463	
         50.13000000	        -16.90593547	         16.86370047	         -9.79969714	          7.08700750	         46.86245639	          6.73993887	        -38.88248977	         91.29427006	        -37.11132463	
         50.14000000	        -44.34577705	         -7.65248351	         11.28790885	          7.08700750	         46.86245639	          6.73993887	        -38.88248977	         91.29427006	        -37.11132463	
         50.15000000	        -30.62585626	         -7.65248351	         11.28790885	          7.08700750	         46.86245639	          6.73993887	        -38.88248977	         91.29427006	        -37.11132463	
         50.16000000	        -16.90593547	         -7.65248351	         11.28790885	          7.08700750	         46.86245639	          6.73993887	        -38.88248977	         91.29427006	        -37.11132463	
         50.17000000	        -44.34577705	          4.60560848	         11.28790885	          7.08700750	         46.86245639	          6.73993887	        -38.88248977	         91.29427006	        -37.11132463	
         50.18000000	        -30.62585626	          4.60560848	         11.28790885	          7.08700750	         46.86245639	          6.73993887	        -38.88248977	         91.29427006	        -37.11132463	
         50.19000000	        -16.90593547	          4.60560848	         11.28790885	          7.08700750	         46.86245639	          6.73993887	        -38.88248977	         91.29427006	        -37.11132463	
         50.20000000	        -44.34577705	         16.86370047	         11.28790885	          7.08700750	         46.86245639	          6.73993887	        -38.88248977	         91.29427006	        -37.11132463	
         50.21000000	        -30.62585626	         16.86370047	         11.28790885	          7.08700750	         46.86245639	          6.73993887	        -38.88248977	         91.29427006	        -37.11132463	
         50.22000000	        -16.90593547	         16.86370047	         11.28790885	          7.08700750	         46.86245639	          6.73993887	        -38.88248977	         91.29427006	        -37.11132463	
         50.23000000	        -44.34577705	         -7.65248351	        -30.88730313	         -7.82036939	         85.49388449	          6.73993887	        -38.88248977	         91.29427006	        -37.11132463	
         50.24000000	        -30.62585626	         -7.65248351	        -30.88730313	         -7.82036939	         85.49388449	          6.73993887	        -38.88248977	         91.29427006	        -37.11132463	
         50.25000000	        -16.90593547	         -7.65248351	        -30.88730313	         -7.82036939	         85.49388449	          6.73993887	        -38.88248977	         91.29427006	        -37.11132463	
         50.26000000	        -44.34577705	          4.60560848	        -30.88730313	         -7.82036939	         85.49388449	          6.73993887	        -38.88248977	         91.29427006	        -37.11132463	
         50.27000000	        -30.62585626	          4.60560848	        -30.88730313	         -7.82036939	         85.49388449	          6.73993887	        -38.88248977	         91.29427006	        -37.11132463	
         50.28000000	        -16.90593547	          4.60560848	        -30.88730313	         -7.82036939	         85.49388449	          6.73993887	        -38.88248977	         91.29427006	        -37.11132463	
         50.29000000	        -44.34577705	         16.86370047	        -30.88730313	         -7.82036939	         85.49388449	          6.73993887	        -38.88248977	         91.29427006	        -37.11132463	
         50.30000000	        -30.62585626	         16.86370047	        -30.88730313	         -7.82036939	         85.49388449	          6.73993887	        -38.88248977	         91.29427006	        -37.11132463	
         50.31000000	        -16.90593547	         16.86370047	        -30.88730313	         -7.82036939	         85.49388449	          6.73993887	        -38.88248977	         91.29427006	        -37.11132463	
         50.32000000	        -44.34577705	         -7.65248351	         -9.79969714	         -7.82036939	         85.49388449	          6.73993887	        -38.88248977	         91.29427006	        -37.11132463	
         50.33000000	        -30.62585626	         -7.65248351	         -9.79969714	         -7.82036939	         85.49388449	          6.73993887	        -38.88248977	         91.29427006	        -37.11132463	
         50.34000000	        -16.90593547	         -7.65248351	         -9.79969714	         -7.82036939	         85.49388449	          6.73993887	        -38.88248977	         91.29427006	        -37.11132463	
         50.35000000	        -44.34577705	          4.60560848	         -9.79969714	         -7.82036939	         85.49388449	          6.73993887	        -38.88248977	         91.29427006	        -37.11132463	
         50.36000000	        -30.62585626	          4.60560848	         -9.79969714	         -7.82036939	         85.49388449	          6.73993887	        -38.88248977	         91.29427006	        -37.11132463	
         50.37000000	        -16.90593547	          4.60560848	         -9.79969714	         -7.82036939	         85.49388449	          6.73993887	        -38.88248977	         91.29427006	        -37.11132463	
         50.38000000	        -44.34577705	         16.86370047	         -9.79969714	         -7.82036939	         85.49388449	          6.73993887	        -38.88248977	         91.29427006	        -37.11132463	
         50.39000000	        -30.62585626	         16.86370047	         -9.79969714	         -7.82036939	         85.49388449	          6.73993887	        -38.88248977	         91.29427006	        -37.11132463	
         50.40000000	        -16.90593547	         16.86370047	         -9.79969714	         -7.82036939	         85.49388449	          6.73993887	        -38.88248977	         91.29427006	        -37.11132463	
         50.41000000	        -44.34577705	         -7.65248351	         11.28790885	         -7.82036939	         85.49388449	          6.73993887	        -38.88248977	         91.29427006	        -37.11132463	
         50.42000000	        -30.62585626	         -7.65248351	         11.28790885	         -7.82036939	         85.49388449	          6.73993887	        -38.88248977	         91.29427006	        -37.11132463	
         50.43000000	        -16.90593547	         -7.65248351	         11.28790885	         -7.82036939	         85.49388449	          6.73993887	        -38.88248977	         91.29427006	        -37.11132463	
         50.44000000	        -44.34577705	          4.60560848	         11.28790885	         -7.82036939	         85.49388449	          6.73993887	        -38.88248977	         91.29427006	        -37.11132463	
         50.45000000	        -30.62585626	          4.60560848	         11.28790885	         -7.82036939	         85.49388449	          6.73993887	        -38.88248977	         91.29427006	        -37.11132463	
         50.46000000	        -16.90593547	          4.60560848	         11.28790885	         -7.82036939	         85.49388449	          6.73993887	        -38.88248977	         91.29427006	        -37.11132463	
         50.47000000	        -44.34577705	         16.86370047	         11.28790885	         -7.82036939	         85.49388449	          6.73993887	        -38.88248977	         91.29427006	        -37.11132463	
         50.48000000	        -30.62585626	         16.86370047	         11.28790885	         -7.82036939	         85.49388449	          6.73993887	        -38.88248977	         91.29427006	        -37.11132463	
         50.49000000	        -16.90593547	         16.86370047	         11.28790885	         -7.82036939	         85.49388449	          6.73993887	        -38.88248977	         91.29427006	        -37.11132463	
         50.50000000	        -44.34577705	         -7.65248351	        -30.88730313	         -0.36668095	         85.49388449	          6.73993887	        -38.88248977	         91.29427006	        -37.11132463	
         50.51000000	        -30.62585626	         -7.65248351	        -30.88730313	         -0.36668095	         85.49388449	          6.73993887	        -38.88248977	         91.29427006	        -37.11132463	
         50.52000000	        -16.90593547	         -7.65248351	        -30.88730313	         -0.36668095	         85.49388449	          6.73993887	        -38.88248977	         91.29427006	        -37.11132463	
